<svg width="1089" height="452" viewBox="0 0 1089 452" fill="none" xmlns="http://www.w3.org/2000/svg">
<mask id="path-1-inside-1_12_665" fill="white">
<path d="M645.132 0.669876V272.486H1097V634.608H0.518095C0.518095 574.629 -1.26888 515.099 1.79464 455.794C2.56051 440.743 16.8568 424.568 28.8556 411.539C146.035 283.718 263.725 156.122 382.436 29.424C394.69 16.3948 415.624 2.91629 433.239 2.01772C501.147 -1.12726 569.565 0.669876 644.877 0.669876"/>
</mask>
<path d="M645.132 272.486H644.132V273.486H645.132V272.486ZM1097 272.486H1098V271.486H1097V272.486ZM1097 634.608V635.608H1098V634.608H1097ZM0.518095 634.608H-0.481905V635.608H0.518095V634.608ZM1.79464 455.794L2.7933 455.845L2.79334 455.844L1.79464 455.794ZM28.8556 411.539L29.5912 412.217L29.5927 412.215L28.8556 411.539ZM382.436 29.424L381.707 28.7389L381.706 28.7403L382.436 29.424ZM433.239 2.01772L433.193 1.01878L433.188 1.01902L433.239 2.01772ZM644.132 0.669876V272.486H646.132V0.669876H644.132ZM645.132 273.486H1097V271.486H645.132V273.486ZM1096 272.486V634.608H1098V272.486H1096ZM1097 633.608H0.518095V635.608H1097V633.608ZM1.51809 634.608C1.51809 574.589 -0.268438 515.116 2.7933 455.845L0.795967 455.742C-2.26931 515.082 -0.481905 574.669 -0.481905 634.608H1.51809ZM2.79334 455.844C3.16222 448.595 6.80357 440.975 11.938 433.473C17.0621 425.986 23.59 418.733 29.5912 412.217L28.12 410.862C22.1224 417.374 15.5028 424.723 10.2875 432.343C5.08268 439.948 1.19293 447.941 0.795928 455.743L2.79334 455.844ZM29.5927 412.215C146.771 284.395 264.458 156.802 383.166 30.1077L381.706 28.7403C262.992 155.442 145.299 283.041 28.1185 410.863L29.5927 412.215ZM383.164 30.1091C389.222 23.6684 397.44 17.1029 406.322 12.0407C415.215 6.97255 424.697 3.45479 433.29 3.01643L433.188 1.01902C424.167 1.47923 414.374 5.14999 405.332 10.3031C396.28 15.462 387.904 22.1504 381.708 28.7389L383.164 30.1091ZM433.286 3.01665C501.163 -0.126903 569.53 1.66988 644.877 1.66988V-0.330124C569.601 -0.330124 501.132 -2.12761 433.193 1.0188L433.286 3.01665Z" fill="#E4E4E5" mask="url(#path-1-inside-1_12_665)"/>
</svg>
