<svg width="870" height="394" viewBox="0 0 870 394" fill="none" xmlns="http://www.w3.org/2000/svg">
<mask id="path-1-inside-1_12_638" fill="white">
<path d="M0 -40.8943C98.1856 -40.8943 192.992 -41.3906 287.798 -40.2326C296.622 -40.2326 311.453 -31.6302 313.331 -24.8475C361.391 148.193 658.576 196.995 789.615 33.2187C790.178 32.3915 791.868 32.226 797.5 30.0754C879.164 71.5985 963.082 114.28 1047 156.961C955.948 313.954 710.766 430.583 439.676 382.939C145.119 330.994 5.06885 110.309 0 -40.7289"/>
</mask>
<path d="M287.798 -40.2326L287.786 -39.2326H287.798V-40.2326ZM313.331 -24.8475L312.367 -24.5808L312.367 -24.5799L313.331 -24.8475ZM789.615 33.2187L790.396 33.8434L790.42 33.8133L790.442 33.7815L789.615 33.2187ZM797.5 30.0754L797.953 29.1841L797.557 28.983L797.143 29.1412L797.5 30.0754ZM1047 156.961L1047.86 157.462L1048.4 156.548L1047.45 156.069L1047 156.961ZM439.676 382.939L439.502 383.924L439.503 383.924L439.676 382.939ZM0 -39.8943C98.1926 -39.8943 192.988 -40.3906 287.786 -39.2327L287.811 -41.2325C192.996 -42.3906 98.1786 -41.8943 0 -41.8943V-39.8943ZM287.798 -39.2326C291.954 -39.2326 297.685 -37.1794 302.658 -34.2239C305.129 -32.7557 307.367 -31.0914 309.089 -29.3994C310.829 -27.6909 311.966 -26.0302 312.367 -24.5808L314.294 -25.1143C313.757 -27.0561 312.336 -29.0143 310.491 -30.8263C308.629 -32.655 306.255 -34.413 303.68 -35.9432C298.562 -38.9845 292.466 -41.2326 287.798 -41.2326V-39.2326ZM312.367 -24.5799C336.542 62.4605 423.302 118.092 520.219 131.482C617.162 144.877 724.605 116.071 790.396 33.8434L788.834 32.5939C723.586 114.143 616.917 142.824 520.493 129.501C424.042 116.175 338.18 60.8849 314.294 -25.1151L312.367 -24.5799ZM790.442 33.7815C790.451 33.7674 790.5 33.6975 790.746 33.5725C791.003 33.442 791.382 33.2961 791.983 33.0885C793.158 32.6824 795.02 32.0926 797.856 31.0097L797.143 29.1412C794.347 30.2089 792.548 30.7771 791.33 31.1982C790.734 31.4042 790.234 31.5892 789.84 31.7895C789.434 31.9954 789.06 32.2564 788.788 32.6559L790.442 33.7815ZM797.046 30.9668C878.711 72.4899 962.629 115.171 1046.55 157.852L1047.45 156.069C963.536 113.388 879.618 70.7072 797.953 29.1841L797.046 30.9668ZM1046.14 156.459C955.336 313.018 710.615 429.541 439.849 381.954L439.503 383.924C710.917 431.625 956.561 314.891 1047.86 157.462L1046.14 156.459ZM439.85 381.954C145.728 330.086 6.05143 109.773 0.999437 -40.7624L-0.999437 -40.6953C4.08628 110.845 144.511 331.902 439.502 383.924L439.85 381.954Z" fill="#E4E4E5" mask="url(#path-1-inside-1_12_638)"/>
</svg>
