<svg width="1047" height="381" viewBox="0 0 1047 381" fill="none" xmlns="http://www.w3.org/2000/svg">
<mask id="path-1-inside-1_14_1097" fill="white">
<path d="M0 0.0925881C98.1856 0.0925881 192.992 -0.342016 287.798 0.671963C296.622 0.671963 311.453 8.20438 313.331 14.1434C361.391 165.661 658.576 208.393 789.615 64.9872C790.178 64.263 791.868 64.1181 797.5 62.235C879.164 98.5934 963.082 135.966 1047 173.338C955.948 310.805 710.766 412.927 439.676 371.209C145.119 325.725 5.06885 132.489 0 0.237418"/>
</mask>
<path d="M287.798 0.671963L287.788 1.67196H287.798V0.671963ZM313.331 14.1434L312.377 14.4448L312.377 14.4457L313.331 14.1434ZM789.615 64.9872L790.353 65.6618L790.38 65.6325L790.404 65.6011L789.615 64.9872ZM797.5 62.235L797.906 61.3214L797.551 61.1633L797.182 61.2866L797.5 62.235ZM1047 173.338L1047.83 173.89L1048.49 172.905L1047.41 172.425L1047 173.338ZM439.676 371.209L439.523 372.197L439.524 372.197L439.676 371.209ZM0 1.09259C98.1917 1.09259 192.988 0.658003 287.788 1.67191L287.809 -0.32798C192.996 -1.34204 98.1794 -0.907412 0 -0.907412V1.09259ZM287.798 1.67196C291.986 1.67196 297.735 3.48004 302.708 6.06763C305.181 7.35466 307.418 8.81212 309.138 10.2912C310.882 11.7911 311.992 13.2261 312.377 14.4448L314.284 13.842C313.731 12.0912 312.282 10.3575 310.442 8.77477C308.577 7.17114 306.203 5.63192 303.631 4.29347C298.513 1.6301 292.434 -0.328037 287.798 -0.328037V1.67196ZM312.377 14.4457C336.582 90.7544 423.388 139.437 520.236 151.154C617.129 162.877 724.55 137.675 790.353 65.6618L788.877 64.3127C723.641 135.705 616.95 160.84 520.476 149.169C423.956 137.491 338.139 89.0498 314.284 13.8411L312.377 14.4457ZM790.404 65.6011C790.405 65.6009 790.407 65.598 790.413 65.592C790.42 65.5857 790.433 65.5751 790.454 65.5603C790.498 65.5295 790.573 65.486 790.699 65.4301C790.961 65.3138 791.345 65.1847 791.946 65.0028C793.123 64.6466 794.982 64.131 797.817 63.1834L797.182 61.2866C794.385 62.222 792.583 62.7204 791.367 63.0885C790.771 63.2688 790.276 63.4294 789.886 63.6028C789.492 63.7781 789.111 64.0064 788.826 64.3734L790.404 65.6011ZM797.093 63.1485C878.758 99.5069 962.675 136.879 1046.59 174.252L1047.41 172.425C963.489 135.052 879.571 97.6798 797.906 61.3214L797.093 63.1485ZM1046.17 172.786C1000.79 241.286 916.946 301.074 810.52 338.524C704.112 375.969 575.21 391.054 439.828 370.22L439.524 372.197C575.232 393.081 704.467 377.964 811.184 340.411C917.886 302.863 1002.15 242.857 1047.83 173.89L1046.17 172.786ZM439.829 370.22C145.619 324.79 6.04528 131.855 0.999266 0.199119L-0.999266 0.275717C4.09242 133.123 144.62 326.659 439.523 372.197L439.829 370.22Z" fill="#D6D6D7" mask="url(#path-1-inside-1_14_1097)"/>
</svg>
